##     ## ##    ## ####  #######  ##     ## ######## 
##     ## ###   ##  ##  ##     ## ##     ## ##       
##     ## ####  ##  ##  ##     ## ##     ## ##       
##     ## ## ## ##  ##  ##     ## ##     ## ######   
##     ## ##  ####  ##  ##  ## ## ##     ## ##       
##     ## ##   ###  ##  ##    ##  ##     ## ##       
 #######  ##    ## ####  ##### ##  #######  ######## 


Filename : Meeting Evil 2012 DVDRip XViD UNiQUE
Format : AVI
Format/Info : Audio Video Interleave
File size : 1.44 GiB
Duration : 1h 28mn
Overall bit rate : 2 323 Kbps
Writing library : VirtualDub build 32842/release
 
http://www.imdb.com/title/tt1810697

Video
ID : 0
Format : MPEG-4 Visual
Format profile : Advanced Simple@L5
Format settings, BVOP : 2
Format settings, QPel : No
Format settings, GMC : No warppoints
Format settings, Matrix : Default (H.263)
Muxing mode : Packed bitstream
Codec ID : XVID
Codec ID/Hint : XviD
Duration : 1h 28mn
Bit rate : 1 863 Kbps
Width : 720 pixels
Height : 400 pixels
Display aspect ratio : 16:9
Frame rate : 29.970 fps
Color space : YUV
Chroma subsampling : 4:2:0
Bit depth : 8 bits
Scan type : Progressive
Compression mode : Lossy
Bits/(Pixel*Frame) : 0.216
Stream size : 1.16 GiB (80%)
Writing library : XviD 64

Audio
ID : 1
Format : AC-3
Format/Info : Audio Coding 3
Mode extension : CM (complete main)
Format settings, Endianness : Big
Codec ID : 2000
Duration : 1h 28mn
Bit rate mode : Constant
Bit rate : 448 Kbps
Channel(s) : 6 channels
Channel positions : Front: L C R, Side: L R, LFE
Sampling rate : 48.0 KHz
Bit depth : 16 bits
Compression mode : Lossy
Stream size : 285 MiB (19%)
Alignment : Aligned on interleaves
Interleave, duration : 33 ms (1.00 video frame)
Interleave, preload duration : 512 ms

Ratings: 5.2/10 from 1,495 users 
Reviews: 22 user | 8 critic

Director:
Chris Fisher
Writers:
Thomas Berger (novel), Chris Fisher
Stars:
Luke Wilson, Samuel L. Jackson and Leslie Bibb


Source Used
Meeting Evil 2012 NTSC DVDR-DTeCH ...........Thanks

Plot:
John is taken on a murder-fueled ride by a mysterious stranger that transforms the weak-willed, disillusioned husband and father into a desperate hero willing to go to any length to protect his family.

 
http://www.imdb.com/title/tt1810697


Screen Shots:
 
http://img19.imageshack.us/img19/130/vlcsnap2012071310h01m53.png
 
http://img837.imageshack.us/img837/5300/vlcsnap2012071310h01m45.png
 
http://img846.imageshack.us/img846/1093/vlcsnap2012071310h00m52.png


##     ## ##    ## ####  #######  ##     ## ######## 
##     ## ###   ##  ##  ##     ## ##     ## ##       
##     ## ####  ##  ##  ##     ## ##     ## ##       
##     ## ## ## ##  ##  ##     ## ##     ## ######   
##     ## ##  ####  ##  ##  ## ## ##     ## ##       
##     ## ##   ###  ##  ##    ##  ##     ## ##       
 #######  ##    ## ####  ##### ##  #######  ######## 